HIERARCHY
ROOT Hips
{
 OFFSET 0.000000 0.000000 0.000000
 CHANNELS 6 Xposition Yposition Zposition Yrotation Xrotation Zrotation
 JOINT Chest
 {
  OFFSET 0.000000 9.585900 0.002600
  CHANNELS 3 Yrotation Xrotation Zrotation
  JOINT Chest2
  {
   OFFSET 0.000000 9.601200 -0.005300
   CHANNELS 3 Yrotation Xrotation Zrotation
   JOINT Chest3
   {
    OFFSET 0.000000 9.561800 0.000000
    CHANNELS 3 Yrotation Xrotation Zrotation
    JOINT Chest4
    {
     OFFSET 0.000000 9.552100 0.000000
     CHANNELS 3 Yrotation Xrotation Zrotation
     JOINT Neck
     {
      OFFSET 0.000000 14.453000 0.000000
      CHANNELS 3 Yrotation Xrotation Zrotation
      JOINT Head
      {
       OFFSET 0.000000 8.936500 -0.011300
       CHANNELS 3 Yrotation Xrotation Zrotation
       End Site
       {
        OFFSET 0.000000 17.073600 -0.006000
       }
      }
     }
     JOINT RightCollar
     {
      OFFSET -2.921100 9.558500 0.000000
      CHANNELS 3 Yrotation Xrotation Zrotation
      JOINT RightShoulder
      {
       OFFSET -13.519700 0.000000 0.000000
       CHANNELS 3 Yrotation Xrotation Zrotation
       JOINT RightElbow
       {
        OFFSET 0.000000 -29.696600 0.000000
        CHANNELS 3 Yrotation Xrotation Zrotation
        JOINT RightWrist
        {
         OFFSET 0.000000 -24.004700 0.000000
         CHANNELS 3 Yrotation Xrotation Zrotation
         End Site
         {
          OFFSET 0.000000 -17.728500 0.000000
         }
        }
       }
      }
     }
     JOINT LeftCollar
     {
      OFFSET 2.921100 9.558500 0.000000
      CHANNELS 3 Yrotation Xrotation Zrotation
      JOINT LeftShoulder
      {
       OFFSET 13.519700 0.000000 0.000000
       CHANNELS 3 Yrotation Xrotation Zrotation
       JOINT LeftElbow
       {
        OFFSET 0.000000 -29.696600 0.000000
        CHANNELS 3 Yrotation Xrotation Zrotation
        JOINT LeftWrist
        {
         OFFSET 0.000000 -24.004700 0.000000
         CHANNELS 3 Yrotation Xrotation Zrotation
         End Site
         {
          OFFSET 0.000000 -17.728500 0.000000
         }
        }
       }
      }
     }
    }
   }
  }
 }
 JOINT RightHip
 {
  OFFSET -7.771700 -0.012900 -0.001300
  CHANNELS 3 Yrotation Xrotation Zrotation
  JOINT RightKnee
  {
   OFFSET 0.000000 -40.869800 0.001200
   CHANNELS 3 Yrotation Xrotation Zrotation
   JOINT RightAnkle
   {
    OFFSET 0.000000 -39.717900 0.002100
    CHANNELS 3 Yrotation Xrotation Zrotation
    JOINT RightToe
    {
     OFFSET 0.000000 -4.965400 11.033500
     CHANNELS 3 Yrotation Xrotation Zrotation
     End Site
     {
      OFFSET 0.000000 -1.423100 5.872300
     }
    }
   }
  }
 }
 JOINT LeftHip
 {
  OFFSET 7.771700 -0.012900 -0.001300
  CHANNELS 3 Yrotation Xrotation Zrotation
  JOINT LeftKnee
  {
   OFFSET 0.000000 -40.869800 0.001200
   CHANNELS 3 Yrotation Xrotation Zrotation
   JOINT LeftAnkle
   {
    OFFSET 0.000000 -39.717900 0.002100
    CHANNELS 3 Yrotation Xrotation Zrotation
    JOINT LeftToe
    {
     OFFSET 0.000000 -4.965400 11.033500
     CHANNELS 3 Yrotation Xrotation Zrotation
     End Site
     {
      OFFSET 0.000000 -1.423100 5.872300
     }
    }
   }
  }
 }
}
MOTION
Frames: 5
Frame Time: 0.008333
-44.019817 62.050254 13.307513 177.991912 -52.406372 -0.195693 3.763904 27.739504 0.697163 0.582541 4.888800 0.123849 0.928125 7.710061 0.222804 2.875363 22.385966 1.019475 0.411850 16.609860 3.489441 -0.443977 -4.899260 6.293664 6.269044 6.180263 5.758481 0.880089 -14.058086 -14.407000 -145.422841 -54.633048 173.044262 19.520019 -4.913773 -33.820859 -10.615120 3.114867 -1.861358 -9.906686 -9.919955 21.614801 163.459460 -64.664749 -178.364515 2.566715 -16.334301 26.576862 2.800288 -14.548225 -7.561315 -0.883253 61.441675 -5.032780 1.559845 -8.054672 10.444611 0.291617 -0.494460 0.143649 -3.574492 -11.752833 0.814152 25.925379 76.250599 26.420200 0.276335 -11.621128 -3.642941 0.249074 0.690594 0.112195
-44.019516 62.051337 13.307057 177.990636 -52.405876 -0.199053 3.765697 27.742670 0.698021 0.582755 4.889633 0.123517 0.926914 7.717200 0.218206 2.879968 22.385969 1.019288 0.415109 16.597249 3.486368 -0.429454 -4.926253 6.291825 6.282936 6.163318 5.755992 0.874379 -14.058994 -14.399010 -145.423195 -54.642577 173.046620 19.518278 -4.916907 -33.830099 -10.613935 3.104963 -1.852028 -9.904890 -9.924488 21.614172 163.416037 -64.683087 -178.341273 2.573375 -16.332022 26.577000 2.794934 -14.547885 -7.556604 -0.880222 61.441913 -5.030684 1.557268 -8.065876 10.443887 0.294154 -0.495679 0.140873 -3.574631 -11.751332 0.818238 25.932173 76.248443 26.426361 0.276097 -11.622833 -3.641857 0.250364 0.691315 0.111076
-44.018628 62.052291 13.306671 177.989245 -52.404304 -0.205667 3.774598 27.747091 0.703217 0.582870 4.890604 0.123148 0.928325 7.724252 0.216222 2.879235 22.376523 1.024319 0.420083 16.589967 3.480353 -0.418181 -4.951943 6.291817 6.289247 6.154547 5.750862 0.875278 -14.058538 -14.391784 -145.427292 -54.649796 173.047261 19.504631 -4.926419 -33.827134 -10.622296 3.104824 -1.843404 -9.893885 -9.935327 21.609618 163.396000 -64.693039 -178.332092 2.580548 -16.330393 26.573506 2.787092 -14.547551 -7.550056 -0.865614 61.439462 -5.018407 1.557344 -8.078224 10.451110 0.291797 -0.489200 0.130053 -3.574852 -11.750207 0.825114 25.942598 76.245343 26.437908 0.276927 -11.626808 -3.644160 0.249364 0.694123 0.111837
-44.012829 62.054297 13.305532 177.977237 -52.410993 -0.233232 3.803905 27.752988 0.745728 0.582505 4.899748 0.122415 0.927382 7.715148 0.217270 2.878569 22.380354 1.022744 0.425075 16.581887 3.477409 -0.406325 -4.976430 6.288633 6.295183 6.151372 5.742862 0.872485 -14.062094 -14.382008 -145.426767 -54.656514 173.047301 19.498550 -4.925913 -33.822645 -10.637615 3.105761 -1.836014 -9.876360 -9.945345 21.605388 163.379277 -64.700820 -178.325688 2.588843 -16.329119 26.568882 2.778744 -14.541818 -7.513778 -0.855560 61.440564 -5.005637 1.579009 -8.097909 10.456375 0.269257 -0.480797 0.114949 -3.576814 -11.740261 0.860582 25.947149 76.250744 26.442538 0.312706 -11.616170 -3.636993 0.217996 0.678664 0.096869
-44.013625 62.055338 13.304674 177.985319 -52.411191 -0.238153 3.801468 27.762305 0.744774 0.581518 4.896649 0.121245 0.922414 7.719050 0.218237 2.868564 22.384453 1.015511 0.435703 16.568155 3.475686 -0.395925 -4.989361 6.287296 6.317827 6.133887 5.734478 0.863455 -14.058834 -14.370577 -145.418397 -54.669975 173.054031 19.489947 -4.918190 -33.823381 -10.631226 3.093197 -1.828740 -9.868338 -9.948555 21.603179 163.313559 -64.725950 -178.288130 2.568955 -16.348289 26.580423 2.771895 -14.540967 -7.516412 -0.858698 61.443527 -5.007076 1.577220 -8.107241 10.455598 0.272335 -0.484233 0.115021 -3.583711 -11.739506 0.858040 25.950974 76.250979 26.443561 0.313480 -11.618044 -3.635772 0.218003 0.678866 0.096626
